<svg viewBox="0 0 32 32" fill="none" xmlns="http://www.w3.org/2000/svg">
<g clip-path="url(#clip0_256_559)">
<path d="M19.1703 15.3218C19.2008 13.0159 19.565 12.5294 19.3063 10.5104C19.0922 8.83869 18.6709 7.82479 18.5178 7.47749C17.966 6.22472 16.5376 3.82201 15.5663 4.01047C14.6111 4.19572 15.1572 6.8305 13.6595 11.8708C13.5609 12.2069 13.4091 12.677 13.1832 13.2264C12.8325 14.0794 12.3104 15.1077 11.4883 16.1865C10.7233 17.1904 10.3268 17.6949 9.64686 17.8161C8.96995 17.9366 8.40077 17.6249 8.31049 17.7861C8.20407 17.9762 8.93113 18.5179 9.38604 18.8028C9.68088 18.9873 10.1615 19.2882 10.78 19.4458C11.8093 19.7079 13.4981 19.6483 14.2893 18.7568C15.2889 17.6301 14.0481 16.1456 15.234 14.7716C15.5541 14.4007 16.1765 13.8926 16.6004 14.037C17.3737 14.3007 17.3358 16.3873 17.0702 17.6821C16.8338 18.8332 16.4979 19.3786 16.2354 19.6855C16.0295 19.926 15.6392 20.3717 14.9753 20.6126C14.0629 20.9435 13.3703 20.6198 13.297 20.7918C13.1889 21.0447 14.5121 22.1478 16.1595 22.1986C16.3584 22.2046 18.0598 22.2342 18.9949 21.1607C20.0469 19.9532 19.1214 18.9449 19.1694 15.323L19.1703 15.3218ZM18.178 9.92741C17.9477 10.2883 17.3999 10.3871 17.054 10.4456C16.7998 10.4884 15.9279 10.636 15.6047 10.2559C15.2785 9.873 15.8367 9.33764 16.0845 8.11328C16.3658 6.72247 15.965 5.83621 16.1874 5.77779C16.3178 5.74338 16.467 6.04627 17.5473 8.01525C18.1183 9.05635 18.3965 9.58491 18.178 9.92741Z" fill="black"/>
<path d="M8.73521 7.4552C8.85023 9.253 7.66058 10.3483 6.19893 12.4802C3.86348 15.8943 2.60162 17.8498 2.99698 19.9232C3.40606 22.0822 5.47871 23.2884 6.04954 23.6235C9.3873 25.5691 13.8713 24.419 14.0525 23.2843C14.1421 22.7082 13.1221 22.0914 12.3222 21.6158C9.05992 19.6562 6.20049 20.6947 5.55578 19.3451C5.2525 18.6994 5.65933 17.9218 6.4984 16.3657C7.08034 15.2833 8.51788 12.5054 10.9984 10.9727C11.4211 10.7125 12.6483 9.9344 12.9711 8.62697C12.9974 8.51289 13.0023 8.46058 13.0058 8.37397C13.0037 7.14772 10.8504 6.93989 8.42062 4.901C8.17073 4.6922 7.83878 4.39384 7.72596 4.47905C7.47495 4.65032 8.65186 6.00019 8.7367 7.4551L8.73521 7.4552Z" fill="black"/>
<path d="M29.2382 11.8481C27.5623 8.68347 23.2087 7.55143 21.839 8.89811C20.4844 10.218 22.7411 13.2513 21.7138 19.4446C21.314 21.8813 20.7438 22.7636 20.3546 23.2463C18.242 25.8755 14.6706 25.2568 14.6012 26.0909C14.5197 27.0121 18.8242 29.0295 21.2235 27.1955C21.9582 26.6401 22.2644 25.9122 22.6438 24.9726C24.273 20.9815 23.0888 17.7519 24.0263 17.3051C25.0054 16.8384 26.4603 20.3017 27.9409 19.9427C29.4887 19.5615 30.9323 15.038 29.2382 11.8481ZM27.1867 15.6315C26.854 15.7728 26.6791 14.9975 25.6005 14.666C25.1132 14.5147 24.4955 14.4658 24.1395 13.935C24.1304 13.9266 24.1025 13.8853 24.0822 13.8349C23.9932 13.6332 24.0693 13.3346 24.0437 12.0566C24.0294 11.2538 23.9886 11.0056 24.1644 10.8039C24.4676 10.4564 25.0838 10.6175 25.2482 10.6596C26.2884 10.9238 26.7975 12.0078 26.9657 12.3866C27.5585 13.7249 27.6694 15.4298 27.1867 15.6322V15.6315Z" fill="black"/>
</g>
<defs>
<clipPath id="clip0_256_559">
<rect width="28" height="26" fill="white" transform="translate(2 3)"/>
</clipPath>
</defs>
</svg>
