<svg viewBox="0 0 338 84" fill="none" xmlns="http://www.w3.org/2000/svg">
<path d="M28.4961 37.4424C31.6485 37.6093 34.7132 38.5447 37.4255 40.1678L41.0073 33.6926C37.4715 31.6027 33.5068 30.3536 29.4166 30.041L28.4961 37.4424Z" fill="#7D1935"/>
<path d="M27.0021 0C21.6747 0 16.467 1.58762 12.0374 4.56209C7.60788 7.53656 4.15547 11.7643 2.11677 16.7107C0.0780772 21.657 -0.455339 27.0999 0.583979 32.3509C1.6233 37.6019 4.18867 42.4253 7.95569 46.2111C11.7227 49.9969 16.5222 52.575 21.7472 53.6195C26.9722 54.664 32.3881 54.1279 37.3099 52.0791C42.2317 50.0302 46.4385 46.5606 49.3982 42.109C52.358 37.6574 53.9377 32.4237 53.9377 27.0698C53.9377 19.8905 51.0999 13.0051 46.0485 7.92857C40.997 2.85199 34.1459 0 27.0021 0ZM27.0021 45.2264C23.4288 45.2264 19.9358 44.1616 16.9648 42.1665C13.9938 40.1714 11.6781 37.3357 10.3107 34.0181C8.94329 30.7004 8.58551 27.0497 9.28261 23.5276C9.97972 20.0056 11.7004 16.7704 14.2271 14.2312C16.7537 11.6919 19.9729 9.96268 23.4775 9.2621C26.982 8.56153 30.6146 8.92109 33.9159 10.2953C37.2171 11.6695 40.0387 13.9967 42.0239 16.9826C44.0091 19.9684 45.0687 23.4788 45.0687 27.0698C45.0687 31.8853 43.1652 36.5035 39.7771 39.9085C36.3889 43.3135 31.7936 45.2264 27.0021 45.2264Z" fill="#B42B51"/>
<path d="M26.9357 29.4507C21.6083 29.4507 16.4006 31.0383 11.971 34.0128C7.54147 36.9872 4.08906 41.215 2.05037 46.1613C0.0116709 51.1077 -0.521745 56.5505 0.517573 61.8016C1.55689 67.0526 4.12226 71.876 7.88928 75.6618C11.6563 79.4475 16.4558 82.0257 21.6808 83.0702C26.9058 84.1147 32.3216 83.5786 37.2435 81.5298C42.1653 79.4809 46.3721 76.0113 49.3318 71.5597C52.2916 67.1081 53.8713 61.8744 53.8713 56.5205C53.8713 49.3411 51.0335 42.4558 45.982 37.3793C40.9306 32.3027 34.0794 29.4507 26.9357 29.4507ZM26.9357 74.6771C23.3624 74.6771 19.8694 73.6122 16.8984 71.6172C13.9274 69.6221 11.6117 66.7864 10.2443 63.4687C8.87688 60.1511 8.5191 56.5004 9.21621 52.9783C9.91331 49.4563 11.634 46.2211 14.1606 43.6819C16.6873 41.1426 19.9065 39.4134 23.411 38.7128C26.9156 38.0122 30.5482 38.3718 33.8495 39.746C37.1507 41.1202 39.9723 43.4474 41.9575 46.4332C43.9427 49.4191 45.0023 52.9295 45.0023 56.5205C45.0023 61.3359 43.0988 65.9541 39.7107 69.3592C36.3225 72.7642 31.7272 74.6771 26.9357 74.6771Z" fill="#7D1935"/>
<path d="M66.3063 52.311C64.0512 55.3927 60.8852 57.6798 57.26 58.8461C53.6349 60.0124 49.7358 59.9982 46.1192 58.8056C42.5026 57.613 39.3531 55.3029 37.1203 52.2049C34.8874 49.1069 33.6852 45.3793 33.6852 41.554C33.6852 37.7286 34.8874 34.001 37.1203 30.903C39.3531 27.805 42.5026 25.4949 46.1192 24.3023C49.7358 23.1097 53.6349 23.0955 57.26 24.2618C60.8852 25.4281 64.0512 27.7153 66.3063 30.7969L71.001 22.6247C67.258 18.7794 62.4599 16.142 57.2189 15.049C51.9779 13.9561 46.5318 14.4572 41.5754 16.4883C36.6191 18.5195 32.3773 21.9887 29.3913 26.4532C26.4053 30.9176 24.8105 36.1749 24.8105 41.5542C24.8105 46.9335 26.4053 52.1908 29.3913 56.6553C32.3773 61.1197 36.6191 64.5889 41.5754 66.6201C46.5318 68.6513 51.9779 69.1524 57.2189 68.0594C62.4599 66.9665 67.258 64.329 71.001 60.4837L66.3063 52.311Z" fill="#F8F8F8"/>
<path d="M13.9492 32.8031L18.1118 40.6781C20.8702 39.1255 23.9858 38.3279 27.1472 38.3651C30.3085 38.4023 33.4047 39.2729 36.1262 40.8899L42.4598 34.4054C38.3352 31.4785 33.4747 29.7762 28.4333 29.4929C23.3919 29.2096 18.3729 30.3566 13.9492 32.8031Z" fill="#7D1935"/>
<path d="M92.432 32.656C94.864 32.656 97.072 33.0507 99.056 33.84C101.061 34.6293 102.768 35.7493 104.176 37.2C105.605 38.6507 106.704 40.4213 107.472 42.512C108.24 44.6027 108.624 46.9387 108.624 49.52C108.624 52.1227 108.24 54.4693 107.472 56.56C106.704 58.6507 105.605 60.432 104.176 61.904C102.768 63.376 101.061 64.5067 99.056 65.296C97.072 66.0853 94.864 66.48 92.432 66.48C89.9787 66.48 87.7493 66.0853 85.744 65.296C83.7387 64.5067 82.0213 63.376 80.592 61.904C79.184 60.432 78.0853 58.6507 77.296 56.56C76.528 54.4693 76.144 52.1227 76.144 49.52C76.144 46.9387 76.528 44.6027 77.296 42.512C78.0853 40.4213 79.184 38.6507 80.592 37.2C82.0213 35.7493 83.7387 34.6293 85.744 33.84C87.7493 33.0507 89.9787 32.656 92.432 32.656ZM92.432 60.4C95.1627 60.4 97.1787 59.4827 98.48 57.648C99.8027 55.8133 100.464 53.1253 100.464 49.584C100.464 46.0427 99.8027 43.344 98.48 41.488C97.1787 39.632 95.1627 38.704 92.432 38.704C89.6587 38.704 87.6 39.6427 86.256 41.52C84.9333 43.376 84.272 46.064 84.272 49.584C84.272 53.104 84.9333 55.792 86.256 57.648C87.6 59.4827 89.6587 60.4 92.432 60.4ZM114.654 66V33.168H119.486C120.51 33.168 121.182 33.648 121.502 34.608L122.014 37.04C122.59 36.4 123.187 35.8133 123.806 35.28C124.446 34.7467 125.118 34.288 125.822 33.904C126.547 33.52 127.315 33.2213 128.126 33.008C128.958 32.7733 129.865 32.656 130.846 32.656C132.915 32.656 134.611 33.2213 135.934 34.352C137.278 35.4613 138.281 36.944 138.942 38.8C139.454 37.712 140.094 36.784 140.862 36.016C141.63 35.2267 142.473 34.5867 143.39 34.096C144.307 33.6053 145.278 33.2427 146.302 33.008C147.347 32.7733 148.393 32.656 149.438 32.656C151.251 32.656 152.862 32.9333 154.27 33.488C155.678 34.0427 156.862 34.8533 157.822 35.92C158.782 36.9867 159.507 38.288 159.998 39.824C160.51 41.36 160.766 43.12 160.766 45.104V66H152.862V45.104C152.862 43.0133 152.403 41.4453 151.486 40.4C150.569 39.3333 149.225 38.8 147.454 38.8C146.643 38.8 145.886 38.9387 145.182 39.216C144.499 39.4933 143.891 39.8987 143.358 40.432C142.846 40.944 142.441 41.5947 142.142 42.384C141.843 43.1733 141.694 44.08 141.694 45.104V66H133.758V45.104C133.758 42.9067 133.31 41.3067 132.414 40.304C131.539 39.3013 130.249 38.8 128.542 38.8C127.39 38.8 126.313 39.088 125.31 39.664C124.329 40.2187 123.411 40.9867 122.558 41.968V66H114.654ZM176.183 57.488C177.079 58.576 178.05 59.344 179.095 59.792C180.162 60.24 181.282 60.464 182.455 60.464C183.671 60.464 184.759 60.2507 185.719 59.824C186.7 59.376 187.532 58.6933 188.215 57.776C188.898 56.8373 189.42 55.6533 189.783 54.224C190.146 52.7733 190.327 51.0453 190.327 49.04C190.327 45.4347 189.73 42.832 188.535 41.232C187.34 39.6107 185.623 38.8 183.383 38.8C181.868 38.8 180.546 39.152 179.415 39.856C178.284 40.5387 177.207 41.5093 176.183 42.768V57.488ZM176.183 37.2C177.506 35.8133 178.967 34.7147 180.567 33.904C182.188 33.072 184.034 32.656 186.103 32.656C188.002 32.656 189.708 33.0293 191.223 33.776C192.759 34.5227 194.06 35.6 195.127 37.008C196.215 38.3947 197.047 40.08 197.623 42.064C198.199 44.048 198.487 46.2773 198.487 48.752C198.487 51.4187 198.156 53.84 197.495 56.016C196.834 58.192 195.884 60.0587 194.647 61.616C193.431 63.152 191.959 64.3467 190.231 65.2C188.503 66.0533 186.583 66.48 184.471 66.48C183.447 66.48 182.519 66.3733 181.687 66.16C180.855 65.968 180.087 65.6907 179.383 65.328C178.679 64.9653 178.028 64.528 177.431 64.016C176.855 63.4827 176.3 62.896 175.767 62.256L175.415 64.464C175.287 65.0187 175.063 65.4133 174.743 65.648C174.444 65.8827 174.028 66 173.495 66H168.279V18.448H176.183V37.2ZM212.784 33.168V66H204.848V33.168H212.784ZM213.872 23.6C213.872 24.2827 213.733 24.9227 213.456 25.52C213.178 26.1173 212.805 26.64 212.336 27.088C211.888 27.536 211.354 27.8987 210.736 28.176C210.117 28.432 209.456 28.56 208.752 28.56C208.069 28.56 207.418 28.432 206.8 28.176C206.202 27.8987 205.68 27.536 205.232 27.088C204.784 26.64 204.421 26.1173 204.144 25.52C203.888 24.9227 203.76 24.2827 203.76 23.6C203.76 22.896 203.888 22.2347 204.144 21.616C204.421 20.9973 204.784 20.464 205.232 20.016C205.68 19.568 206.202 19.216 206.8 18.96C207.418 18.6827 208.069 18.544 208.752 18.544C209.456 18.544 210.117 18.6827 210.736 18.96C211.354 19.216 211.888 19.568 212.336 20.016C212.805 20.464 213.178 20.9973 213.456 21.616C213.733 22.2347 213.872 22.896 213.872 23.6ZM228.234 37.2C228.895 36.5387 229.588 35.9307 230.314 35.376C231.06 34.8 231.839 34.32 232.65 33.936C233.482 33.5307 234.367 33.2213 235.306 33.008C236.244 32.7733 237.268 32.656 238.378 32.656C240.17 32.656 241.759 32.9653 243.146 33.584C244.532 34.1813 245.684 35.0347 246.602 36.144C247.54 37.232 248.244 38.544 248.714 40.08C249.204 41.5947 249.45 43.2693 249.45 45.104V66H241.546V45.104C241.546 43.0987 241.087 41.552 240.17 40.464C239.252 39.3547 237.855 38.8 235.978 38.8C234.612 38.8 233.332 39.1093 232.138 39.728C230.943 40.3467 229.812 41.1893 228.746 42.256V66H220.842V33.168H225.674C226.698 33.168 227.37 33.648 227.69 34.608L228.234 37.2ZM265.159 33.168V66H257.223V33.168H265.159ZM266.247 23.6C266.247 24.2827 266.108 24.9227 265.831 25.52C265.553 26.1173 265.18 26.64 264.711 27.088C264.263 27.536 263.729 27.8987 263.111 28.176C262.492 28.432 261.831 28.56 261.127 28.56C260.444 28.56 259.793 28.432 259.175 28.176C258.577 27.8987 258.055 27.536 257.607 27.088C257.159 26.64 256.796 26.1173 256.519 25.52C256.263 24.9227 256.135 24.2827 256.135 23.6C256.135 22.896 256.263 22.2347 256.519 21.616C256.796 20.9973 257.159 20.464 257.607 20.016C258.055 19.568 258.577 19.216 259.175 18.96C259.793 18.6827 260.444 18.544 261.127 18.544C261.831 18.544 262.492 18.6827 263.111 18.96C263.729 19.216 264.263 19.568 264.711 20.016C265.18 20.464 265.553 20.9973 265.831 21.616C266.108 22.2347 266.247 22.896 266.247 23.6ZM275.521 66V39.12L272.673 38.672C272.054 38.544 271.553 38.3307 271.169 38.032C270.806 37.712 270.625 37.264 270.625 36.688V33.456H275.521V31.024C275.521 29.1467 275.798 27.4613 276.353 25.968C276.929 24.4747 277.739 23.2053 278.785 22.16C279.851 21.1147 281.142 20.3147 282.657 19.76C284.171 19.2053 285.878 18.928 287.777 18.928C289.291 18.928 290.699 19.1307 292.001 19.536L291.841 23.504C291.819 23.8027 291.734 24.048 291.585 24.24C291.435 24.4107 291.233 24.5493 290.977 24.656C290.742 24.7413 290.465 24.8053 290.145 24.848C289.825 24.8693 289.483 24.88 289.121 24.88C288.182 24.88 287.339 24.9867 286.593 25.2C285.867 25.392 285.249 25.744 284.737 26.256C284.225 26.7467 283.83 27.408 283.553 28.24C283.297 29.0507 283.169 30.064 283.169 31.28V33.456H291.713V39.088H283.425V66H275.521ZM325.978 33.168L308.09 75.024C307.855 75.5787 307.546 75.9947 307.162 76.272C306.799 76.5707 306.234 76.72 305.466 76.72H299.578L305.722 63.536L292.442 33.168H299.386C300.005 33.168 300.485 33.3173 300.826 33.616C301.189 33.9147 301.455 34.256 301.626 34.64L308.602 51.664C308.837 52.24 309.029 52.816 309.178 53.392C309.349 53.968 309.509 54.5547 309.658 55.152C309.85 54.5547 310.042 53.968 310.234 53.392C310.426 52.7947 310.639 52.208 310.874 51.632L317.466 34.64C317.637 34.2133 317.914 33.8613 318.298 33.584C318.703 33.3067 319.151 33.168 319.642 33.168H325.978Z" fill="#F8F8F8"/>
</svg>
