<svg viewBox="0 0 237 60" fill="none" xmlns="http://www.w3.org/2000/svg">
<path d="M28.9403 59.9978C38.4642 59.9978 46.0131 57.2769 51.5914 51.7979C57.1697 46.3605 59.9391 39.0799 59.9391 29.9978C59.9391 20.9179 57.1697 13.6811 51.5914 8.19993C46.0109 2.72091 38.4642 0 28.9403 0H0V59.9978H28.9403ZM14.2639 12.5954H28.6946C34.1894 12.5954 38.3852 14.143 41.238 17.2382C44.0908 20.3356 45.5172 24.6042 45.5172 30C45.5172 40.8792 39.7282 47.4068 28.6967 47.4068H14.2639V12.5954ZM171.882 0H64.9512V59.9978H171.88V47.4856H79.2129V35.8118H166.201V24.6808H79.2129V12.51H171.882V0ZM191.825 59.9978V24.1007L191.742 16.4852H192.58L218.545 60H237V0H222.738V35.9387L222.822 43.5564H221.983L196.021 0H177.566V59.9978H191.83H191.825Z" fill="#38001E"/>
</svg>
