<svg viewBox="0 0 300 32" fill="none" xmlns="http://www.w3.org/2000/svg">
<path d="M0 31.36V0H5.54757L18.8117 28.8789H19.8768V0H22.6495V31.36H17.1774L3.83781 2.51947H2.85033V31.3621H0V31.36ZM29.7193 31.36V0H48.4167V2.51947H32.5351V15.4539H46.0256V17.9371H32.533V31.3237H29.7214L29.7193 31.36ZM64.3415 20.4565H55.6008V31.36H52.7871V0H64.3781C67.7631 0 70.2318 0.827733 71.8273 2.4448C73.4228 4.06187 74.2206 6.58133 74.2206 9.9264C74.2206 16.9216 70.9541 20.4565 64.3781 20.4565H64.3415ZM55.6008 17.9733H64.3415C68.977 17.9733 71.2581 15.3045 71.2581 9.9264C71.2581 7.37067 70.7256 5.48907 69.6238 4.28587C68.5221 3.08267 66.7735 2.48107 64.3415 2.48107H55.6008V17.9733ZM107.702 30.7584C104.472 31.5477 101.165 31.9253 97.8209 31.9253C94.4769 31.9253 91.8551 31.4347 90.031 30.496C88.207 29.5573 86.8767 27.9787 86.0768 25.7195C85.2791 23.5008 84.8608 20.3051 84.8608 16.0939C84.8608 10.1163 85.8116 6.016 87.6745 3.79733C89.5352 1.57867 93.1078 0.490667 98.3535 0.490667C100.557 0.490667 103.14 0.789333 106.107 1.39093L107.702 1.69173L107.435 9.77707C105.141 9.48877 102.831 9.33774 100.518 9.3248C98.3901 9.3248 97.0598 9.73867 96.4518 10.528C95.8438 11.3173 95.5398 12.9728 95.5398 15.456C95.5398 17.9371 95.6907 19.6672 95.9581 20.6443C96.2254 21.6213 96.7192 22.2613 97.3638 22.5621C98.0107 22.8608 99.037 23.0528 100.482 23.0528L107.588 22.7883L107.739 30.7221L107.702 30.7584ZM137.762 16.2453C137.762 21.7344 136.624 25.76 134.304 28.2411C131.986 30.7221 128.299 31.9637 123.245 31.9637C118.191 31.9637 114.505 30.7221 112.148 28.2027C109.83 25.7195 108.653 21.696 108.653 16.2069C108.653 10.7179 109.791 6.73067 112.111 4.2496C114.429 1.76853 118.116 0.526933 123.207 0.526933C128.299 0.526933 131.986 1.76853 134.304 4.2496C136.624 6.73067 137.762 10.7179 137.762 16.2453ZM119.332 16.2453C119.332 18.8011 119.597 20.6443 120.091 21.7707C120.587 22.9013 121.65 23.4645 123.245 23.4645C124.841 23.4645 125.867 22.9013 126.361 21.8091C126.857 20.7211 127.083 18.8395 127.083 16.2453C127.083 13.6491 126.857 11.808 126.361 10.6773C125.867 9.55093 124.841 9.024 123.245 9.024C121.65 9.024 120.585 9.58933 120.091 10.7179C119.595 11.8443 119.332 13.6896 119.332 16.2453ZM139.854 31.36V1.13067H150.267L157.296 12.5995H157.943V1.12853H168.508V31.36H158.057L151.141 19.0293H150.457V31.36H139.854ZM171.244 31.36V1.13067H181.658L188.686 12.5995H189.333V1.12853H199.898V31.36H189.447L182.531 19.0293H181.847V31.36H171.244ZM202.636 31.36V1.13067H225.514V9.4784H213.203V12.032H222.778V20.3051H213.203V23.0144H225.514V31.36H202.636ZM249.725 30.7584C246.495 31.5477 243.188 31.9253 239.843 31.9253C236.499 31.9253 233.878 31.4347 232.054 30.496C230.23 29.5573 228.899 27.9787 228.101 25.7195C227.302 23.4645 226.883 20.3051 226.883 16.0939C226.883 10.1163 227.834 6.016 229.697 3.79733C231.56 1.57867 235.13 0.490667 240.376 0.490667C242.58 0.490667 245.165 0.789333 248.129 1.39093L249.725 1.69173L249.46 9.77707C247.165 9.48883 244.856 9.33779 242.543 9.3248C240.413 9.3248 239.085 9.73867 238.477 10.528C237.866 11.3173 237.562 12.9728 237.562 15.456C237.562 17.9371 237.715 19.6672 237.981 20.6443C238.285 21.6213 238.742 22.2613 239.389 22.5621C240.033 22.8608 241.059 23.0528 242.504 23.0528L249.61 22.7883L249.764 30.7221L249.725 30.7584ZM250.786 9.664V1.12853H273.588V9.664H267.661V31.36H257.094V9.664H250.786ZM298.67 9.85173C294.377 9.39947 291.259 9.17547 289.321 9.17547C287.383 9.17547 286.244 9.21173 285.94 9.3248C285.636 9.43787 285.444 9.664 285.444 9.9648C285.444 10.2635 285.636 10.5664 285.977 10.7157C286.356 10.9035 287.497 11.2064 289.435 11.6181C291.374 12.032 292.932 12.4459 294.187 12.8597C295.389 13.2531 296.518 13.8366 297.531 14.5877C298.519 15.3408 299.166 16.2432 299.506 17.2971C299.849 18.3488 300 19.8144 300 21.6213C300 25.344 299.013 28.0149 296.999 29.5936C294.985 31.1723 291.982 32 287.915 32C285.977 32 283.924 31.8507 281.796 31.5861C279.668 31.3237 277.997 31.0592 276.857 30.7584L275.069 30.3445L275.526 22.3744C280.162 23.0507 284.002 23.3515 286.964 23.3515C288.562 23.3515 289.321 23.0123 289.321 22.2976C289.321 21.9989 289.131 21.7728 288.791 21.6576C288.448 21.5467 287.421 21.3205 285.826 21.0944C281.57 20.4181 278.681 19.4027 277.122 18.0117C275.602 16.6208 274.804 14.3253 274.804 11.1296C274.804 7.06987 275.792 4.28587 277.769 2.78187C279.744 1.27787 282.786 0.526933 286.889 0.526933C289.778 0.526933 293.161 0.8256 297.074 1.39093L298.974 1.69173L298.709 9.81333L298.67 9.85173Z" fill="white"/>
</svg>

