<svg viewBox="0 0 258 259" fill="none" xmlns="http://www.w3.org/2000/svg">
<path fill-rule="evenodd" clip-rule="evenodd" d="M137.793 118.857H114.347V100.577H137.793C140.218 100.58 142.543 101.545 144.258 103.26C145.973 104.975 146.938 107.3 146.941 109.725C146.941 114.759 142.827 118.857 137.795 118.857M155.168 109.725C155.168 100.148 147.369 92.3516 137.793 92.3516H110.234C109.143 92.3521 108.097 92.7857 107.325 93.557C106.554 94.3284 106.121 95.3744 106.12 96.4652V145.247C106.154 146.315 106.602 147.329 107.37 148.073C108.137 148.817 109.165 149.233 110.234 149.233C111.303 149.233 112.33 148.817 113.098 148.073C113.865 147.329 114.314 146.315 114.347 145.247V127.084H131.872L146.055 147.585C146.361 148.03 146.753 148.411 147.207 148.705C147.662 148.998 148.17 149.199 148.702 149.295C149.234 149.391 149.78 149.381 150.309 149.265C150.837 149.15 151.337 148.93 151.78 148.62C152.224 148.314 152.602 147.923 152.895 147.47C153.187 147.017 153.387 146.511 153.483 145.98C153.579 145.45 153.57 144.906 153.455 144.379C153.341 143.853 153.124 143.354 152.816 142.911L141.578 126.672C149.346 124.945 155.168 118.001 155.168 109.725ZM112.192 44.2755C113.033 44.2755 113.886 44.0109 114.626 43.4695C117.458 41.3964 120.116 39.0961 122.575 36.5916C122.954 36.2053 123.252 35.748 123.454 35.246C123.656 34.744 123.757 34.207 123.751 33.666C123.745 33.1249 123.632 32.5904 123.419 32.093C123.206 31.5957 122.897 31.1453 122.509 30.7676C122.123 30.3904 121.667 30.0928 121.166 29.892C120.666 29.6911 120.13 29.5908 119.591 29.5969C119.051 29.603 118.518 29.7154 118.022 29.9275C117.526 30.1396 117.077 30.4474 116.699 30.8333C114.543 33.0215 112.217 35.0348 109.741 36.8541C109.307 37.1734 108.939 37.5754 108.66 38.0369C108.381 38.4985 108.195 39.0106 108.114 39.5439C108.033 40.0772 108.058 40.6213 108.187 41.145C108.316 41.6687 108.548 42.1617 108.868 42.596C109.25 43.1184 109.751 43.5429 110.328 43.8348C110.906 44.1267 111.545 44.2777 112.192 44.2755ZM87.1184 56.3519C87.4957 56.3519 87.8751 56.3027 88.2524 56.1879C91.5675 55.2407 94.8253 54.1034 98.0096 52.7817C99.013 52.3575 99.8079 51.5536 100.221 50.5455C100.634 49.5375 100.631 48.407 100.214 47.4007C100.009 46.902 99.7069 46.4488 99.326 46.067C98.945 45.6853 98.4924 45.3825 97.9942 45.1762C97.4959 44.9698 96.9618 44.8639 96.4225 44.8645C95.8832 44.8652 95.3493 44.9723 94.8515 45.1798C91.9488 46.378 88.9825 47.4159 85.9659 48.2886C85.4461 48.4378 84.9609 48.6884 84.5385 49.026C84.116 49.3636 83.7646 49.7816 83.5046 50.2558C83.2445 50.7299 83.081 51.2509 83.0233 51.7886C82.9657 52.3264 83.0151 52.8702 83.1688 53.3887C83.4154 54.2449 83.9344 54.9973 84.6471 55.5321C85.3598 56.0668 86.2274 56.3546 87.1184 56.3519Z" fill="#FEFEFE"/>
<path fill-rule="evenodd" clip-rule="evenodd" d="M151.203 190.791C139.651 190.791 130.273 200.185 130.273 211.72C130.273 220.85 136.132 228.632 144.31 231.495L128.992 246.748L10.118 128.401L15.6446 120.305H73.6419C73.6276 120.586 73.6276 120.849 73.6276 121.129C73.6276 151.664 98.4715 176.51 128.992 176.51C159.528 176.51 184.372 151.666 184.372 121.129C184.372 120.849 184.372 120.586 184.356 120.305H242.337L247.866 128.418L170.996 204.924C168.182 196.713 160.367 190.791 151.203 190.791ZM151.4 224.437H151.203C144.193 224.437 138.501 218.727 138.501 211.72C138.506 208.353 139.845 205.125 142.226 202.744C144.607 200.363 147.835 199.023 151.203 199.018C154.57 199.023 157.798 200.363 160.179 202.744C162.56 205.125 163.9 208.353 163.905 211.72C163.905 211.802 163.905 211.901 163.921 211.983L151.4 224.437ZM176.145 121.129C176.145 147.122 154.988 168.283 128.992 168.283C102.995 168.283 81.8528 147.122 81.8528 121.129C81.8528 120.849 81.8528 120.57 81.8692 120.305C81.9028 117.543 82.189 114.79 82.7244 112.08C86.9549 90.3919 106.09 73.9905 128.992 73.9905C151.894 73.9905 171.045 90.3919 175.276 112.08C175.799 114.746 176.096 117.494 176.129 120.305C176.145 120.57 176.145 120.849 176.145 121.129ZM57.1586 59.4615C57.8148 59.9208 58.6207 60.1854 59.4943 60.1854C62.9333 60.1854 66.3702 60.0213 69.7436 59.6932C70.281 59.6433 70.8034 59.4879 71.2806 59.2357C71.7579 58.9835 72.1806 58.6397 72.5247 58.2238C72.8688 57.8079 73.1274 57.3281 73.2857 56.8121C73.4439 56.2961 73.4988 55.7539 73.4471 55.2166C73.3986 54.6787 73.2439 54.1557 72.9922 53.6779C72.7404 53.2001 72.3965 52.777 71.9803 52.4328C71.564 52.0887 71.0838 51.8304 70.5672 51.6729C70.0506 51.5153 69.5079 51.4617 68.9705 51.5151C66.7545 51.7291 64.5315 51.8612 62.3058 51.9109L92.139 8.19451H128.366C128.305 8.37598 128.262 8.56271 128.235 8.7523C127.825 11.6665 127.039 14.5154 125.897 17.2278C125.481 18.236 125.481 19.3683 125.897 20.3766C126.314 21.3849 127.113 22.1868 128.12 22.6067C129.128 23.0252 130.261 23.0264 131.27 22.61C132.278 22.1935 133.08 21.3935 133.499 20.3858C134.903 17.0288 135.876 13.5079 136.397 9.90683C136.479 9.31213 136.43 8.73794 136.264 8.19451H165.861L236.726 112.08H183.632C179.301 85.8332 156.448 65.7632 128.99 65.7632C101.543 65.7632 78.6927 85.8353 74.3658 112.08H21.2532L57.1606 59.4615H57.1586ZM170.5 0H87.3815L0 129.584L128.992 258.002L258 129.584L170.502 0.00205065L170.5 0Z" fill="#FEFEFE"/>
</svg>
