<svg width="32" height="32" viewBox="0 0 32 32" fill="none" xmlns="http://www.w3.org/2000/svg">
<rect width="32" height="32" rx="16" fill="white"/>
<path d="M18.5569 14.9723C18.5863 12.5339 18.9375 12.0194 18.6881 9.88442C18.4816 8.11668 18.0754 7.04453 17.9277 6.67728C17.3957 5.35253 16.0183 2.81179 15.0817 3.01107C14.1606 3.20697 14.6872 5.99312 13.2429 11.323C13.1479 11.6784 13.0015 12.1755 12.7837 12.7565C12.4455 13.6585 11.9421 14.7459 11.1493 15.8866C10.4116 16.9482 10.0293 17.4817 9.37366 17.6099C8.72092 17.7373 8.17207 17.4077 8.08501 17.5782C7.98239 17.7791 8.68349 18.352 9.12215 18.6533C9.40646 18.8483 9.86993 19.1665 10.4663 19.3332C11.4589 19.6103 13.0873 19.5473 13.8503 18.6046C14.8142 17.4132 13.6177 15.8434 14.7612 14.3905C15.0699 13.9983 15.6701 13.4609 16.0789 13.6137C16.8246 13.8925 16.788 16.099 16.5318 17.4682C16.3039 18.6854 15.98 19.2621 15.7269 19.5866C15.5283 19.8409 15.1519 20.3123 14.5118 20.567C13.632 20.9169 12.9641 20.5746 12.8934 20.7565C12.7891 21.0239 14.0652 22.1904 15.6537 22.2442C15.8455 22.2505 17.4861 22.2818 18.3878 21.1466C19.4023 19.8697 18.5098 18.8035 18.5561 14.9735L18.5569 14.9723ZM17.6001 9.26795C17.378 9.64959 16.8498 9.7541 16.5163 9.81587C16.2711 9.86115 15.4304 10.0173 15.1187 9.61532C14.8041 9.21041 15.3425 8.64429 15.5813 7.34959C15.8526 5.87888 15.4661 4.9417 15.6806 4.87993C15.8063 4.84354 15.9502 5.16383 16.9919 7.24593C17.5425 8.34685 17.8108 8.90577 17.6001 9.26795Z" fill="black"/>
<path d="M8.49466 6.65368C8.60556 8.55477 7.4584 9.71298 6.04896 11.9673C3.79692 15.5776 2.58013 17.6454 2.96138 19.838C3.35584 22.121 5.35446 23.3965 5.90491 23.7508C9.12345 25.8082 13.4473 24.5921 13.622 23.3922C13.7084 22.783 12.7249 22.1308 11.9536 21.6278C8.80777 19.5556 6.05047 20.6538 5.42878 19.2267C5.13633 18.5438 5.52863 17.7215 6.33773 16.0761C6.89889 14.9315 8.28508 11.994 10.677 10.3733C11.0846 10.0981 12.268 9.27531 12.5792 7.89277C12.6047 7.77213 12.6094 7.71682 12.6127 7.62523C12.6107 6.32854 10.5343 6.10876 8.19129 3.95274C7.95034 3.73194 7.63024 3.41644 7.52145 3.50654C7.2794 3.68765 8.41428 5.11508 8.49609 6.65358L8.49466 6.65368Z" fill="black"/>
<path d="M28.2654 11.299C26.6493 7.95258 22.4512 6.75551 21.1304 8.17956C19.8242 9.57533 22.0003 12.7829 21.0097 19.332C20.6242 21.9087 20.0744 22.8416 19.6991 23.3521C17.6619 26.1324 14.218 25.4781 14.1511 26.3601C14.0726 27.3343 18.2234 29.4675 20.537 27.5281C21.2454 26.9409 21.5406 26.1711 21.9065 25.1776C23.4775 20.9572 22.3356 17.5421 23.2397 17.0695C24.1837 16.576 25.5867 20.2383 27.0144 19.8586C28.5069 19.4556 29.899 14.6722 28.2654 11.299ZM26.2871 15.2998C25.9664 15.4492 25.7976 14.6293 24.7576 14.2788C24.2877 14.1189 23.6921 14.0672 23.3488 13.5058C23.34 13.4969 23.3131 13.4533 23.2935 13.4C23.2077 13.1867 23.2811 12.8709 23.2564 11.5196C23.2426 10.6706 23.2033 10.4081 23.3728 10.1949C23.6651 9.82734 24.2594 9.99778 24.4179 10.0422C25.4209 10.3217 25.9118 11.4679 26.074 11.8685C26.6457 13.2837 26.7526 15.0865 26.2871 15.3006V15.2998Z" fill="black"/>
</svg>
