<svg width="26" height="26" viewBox="0 0 26 26" fill="none" xmlns="http://www.w3.org/2000/svg">
<path d="M8.16443 6.78557C7.78367 6.40481 7.16633 6.40481 6.78557 6.78557C6.40481 7.16633 6.40481 7.78367 6.78557 8.16443L16.1711 17.55H8.775C8.23652 17.55 7.8 17.9865 7.8 18.525C7.8 19.0635 8.23652 19.5 8.775 19.5H18.525C18.6572 19.5 18.7833 19.4737 18.8982 19.426C19.0106 19.3795 19.116 19.3111 19.208 19.2208C19.2123 19.2166 19.2166 19.2123 19.2208 19.208C19.3111 19.116 19.3795 19.0106 19.426 18.8982C19.4737 18.7833 19.5 18.6572 19.5 18.525V8.775C19.5 8.23652 19.0635 7.8 18.525 7.8C17.9865 7.8 17.55 8.23652 17.55 8.775V16.1711L8.16443 6.78557Z" fill="#0F172A"/>
</svg>
