<svg viewBox="0 0 26 26" fill="none" xmlns="http://www.w3.org/2000/svg">
<path fill-rule="evenodd" clip-rule="evenodd" d="M7.29289 6.29289C7.68342 5.90237 8.31658 5.90237 8.70711 6.29289L19.7071 17.2929C20.0976 17.6834 20.0976 18.3166 19.7071 18.7071C19.3166 19.0976 18.6834 19.0976 18.2929 18.7071L7.29289 7.70711C6.90237 7.31658 6.90237 6.68342 7.29289 6.29289Z" fill="black"/>
<path fill-rule="evenodd" clip-rule="evenodd" d="M19.7071 6.29289C19.3166 5.90237 18.6834 5.90237 18.2929 6.29289L7.29289 17.2929C6.90237 17.6834 6.90237 18.3166 7.29289 18.7071C7.68342 19.0976 8.31658 19.0976 8.70711 18.7071L19.7071 7.70711C20.0976 7.31658 20.0976 6.68342 19.7071 6.29289Z" fill="black"/>
</svg>
