<svg width="234" height="96" viewBox="0 0 234 96" fill="none" xmlns="http://www.w3.org/2000/svg">
<path d="M118.722 25.1244C118.006 25.8586 123.156 30.2435 126.017 37.1981C128.51 43.235 127.652 47.1304 127.836 53.9423C128.265 69.0754 133.946 82.8827 135.867 82.6176C137.584 82.3932 138.585 70.8089 137.154 60.1016C136.051 51.9233 133.905 47.1101 135.336 46.2535C136.848 45.3153 142.1 49.1292 144.47 54.7174C148.823 64.9964 140.261 73.6642 145.022 80.884C147.413 84.4939 152.297 86.3294 153.973 84.9222C155.873 83.3314 153.114 78.2735 150.867 68.7694C146.105 48.6193 150.805 41.9501 144.102 33.7514C138.932 27.4086 131.065 25.5119 130.574 26.2461C130.247 26.7763 133.374 28.8362 135.683 33.7514C137.134 36.8106 138.013 40.4817 137.318 40.8692C136.317 41.4403 133.088 34.9751 125.077 28.7546C122.768 26.9191 119.294 24.5329 118.722 25.1244Z" fill="black"/>
<path d="M94.8123 19.2098C93.7905 20.0868 100.105 26.4704 104.213 37.3613C106.317 42.9699 109.771 52.1068 107.135 61.6108C103.927 73.1747 94.281 77.4373 95.8137 80.2721C97.0602 82.5768 104.683 81.9445 109.158 77.58C111.651 75.153 112.346 71.9714 113.735 65.649C115.534 57.4299 114.185 52.3719 113.735 50.2508C113.245 48.2725 112.346 45.4988 113.368 44.6626C114.226 43.9692 116.065 44.8666 117.21 45.8252C119.927 48.1094 120.214 52.168 120.316 54.1055C121.113 68.9326 117.393 75.0103 120.867 80.2721C123.258 83.882 128.142 85.7176 129.818 84.3103C131.719 82.7195 128.96 77.6616 126.712 68.1576C122.175 48.9456 126.303 43.1942 119.948 33.1395C115.268 25.7362 108.994 22.7381 108.811 22.9421C108.606 23.1664 114.471 27.7961 115.391 35.0567C115.452 35.5257 115.799 38.2179 115.023 38.5238C113.613 39.0948 110.629 32.3033 103.334 25.2467C100.269 22.3098 95.6297 18.496 94.8123 19.2098Z" fill="black"/>
<path d="M55.2698 0.81367C56.3324 0.670905 63.1578 -0.246865 64.6292 3.46501C67.4902 10.644 44.909 21.5961 40.2498 45.0298C37.0414 61.1826 45.5834 67.2806 40.3315 78.8241C34.4052 91.7953 16.5038 100.463 7.10354 93.1414C1.23858 88.5729 0.54378 79.2728 0.135072 74.0109C-1.02975 58.5516 5.53002 40.0331 12.4576 39.2173C18.6495 38.483 24.9232 51.9641 23.1249 54.5542C21.6127 56.7161 14.9712 50.5568 11.9263 53.6772C9.14708 56.5529 10.8637 65.7918 15.0325 71.1149C15.9112 72.2162 19.5896 76.9274 23.6153 75.7037C25.9245 75.0103 27.7842 72.5629 29.4599 68.382C35.6314 53.0042 28.1111 41.9706 32.5047 26.5316C36.0196 14.2743 45.1747 2.15973 55.2698 0.81367Z" fill="black"/>
<path d="M75.7051 11.7249C71.1889 9.05317 64.1183 14.5394 60.9712 16.9868C51.4074 24.4105 42.6202 39.2988 46.4416 51.0259C46.789 52.0864 48.6282 57.7562 53.9823 60.5911C54.3093 60.7746 60.3377 63.8135 66.3048 60.6931C71.7611 57.8378 73.7229 51.6581 75.7051 45.0094C78.2187 36.6271 82.7349 15.8855 75.7051 11.7249ZM65.7327 41.583C62.8513 43.0923 58.7437 42.8475 57.1498 40.033C54.9632 36.1376 58.5394 28.9382 61.5638 25.2875C64.343 21.9427 69.4928 18.1493 71.6589 20.1072C74.7651 22.9013 72.6398 37.9731 65.7327 41.583Z" fill="black"/>
<path d="M100.228 36.8515C96.7332 26.1849 88.8042 16.171 85.4324 17.3743C80.4666 19.1283 86.5972 44.6627 77.2378 59.3063C74.152 64.1194 70.5759 65.9142 69.5336 66.3833C64.0774 68.9122 58.8255 67.6478 57.8446 67.3826C49.2209 65.1188 45.8286 56.7569 44.9294 57.3279C43.6829 58.0826 47.2795 75.0919 58.7029 77.6209C66.0392 79.2525 72.7216 74.0518 73.6616 73.2972C80.5075 67.8109 79.2609 61.3865 85.6776 58.2661C90.296 56.0227 96.0997 57.0628 96.5697 58.6536C96.9988 60.1424 92.6461 61.5701 88.089 65.7918C80.6096 72.7057 76.5839 83.3722 78.7704 85.3097C80.5892 86.9209 87.4146 83.0051 91.8287 78.9057C102.557 68.9122 104.887 51.0667 100.228 36.8515ZM96.6514 43.6634C96.2427 44.52 95.0983 44.7443 92.7687 45.1726C90.153 45.6621 88.0277 46.0496 87.1898 44.9686C86.4337 44.0101 87.1081 42.6232 87.6803 40.2166C89.1312 33.9962 87.4759 29.9784 88.4364 29.7133C89.2129 29.5093 89.9077 32.3238 93.3613 37.4633C95.691 40.9101 97.244 42.4193 96.6514 43.6634Z" fill="black"/>
<path d="M147.944 29.8152C152.461 34.8527 151.418 40.8896 151.97 50.6384C152.869 66.2404 153.625 75.0102 159.592 80.1906C165.825 85.5952 174.878 84.2287 177.371 83.8616C191.942 81.6794 202.772 67.6477 200.668 63.8746C199.585 61.9575 195.109 62.5694 191.574 63.0588C177.208 65.0371 170.995 74.8879 165.927 72.4405C163.496 71.2576 162.944 67.9944 161.84 61.4272C161.064 56.8588 158.979 45.2541 162.862 34.8527C163.536 33.0784 165.437 27.8776 163.353 23.248C163.169 22.8401 163.046 22.677 162.862 22.4322C160.022 18.8223 153.033 23.3296 140.996 23.0645C139.75 23.0441 138.074 22.9421 137.931 23.4724C137.624 24.5533 144.286 25.7362 147.944 29.8152Z" fill="black"/>
<path d="M196.989 32.2626C192.82 26.2461 189.898 25.2875 186.363 17.9862C184.34 13.7848 183.584 10.5624 181.458 10.2361C178.597 9.78741 175.573 14.9269 173.693 18.1901C166.377 30.9165 165.662 43.1535 165.519 46.3351C165.274 52.066 164.701 65.8938 169.402 67.3418C172.508 68.3004 177.862 63.8339 179.619 58.776C181.683 52.8206 178.046 49.068 180.845 45.5193C183.134 42.6232 187.957 41.9094 189.02 43.2758C190.307 44.9278 185.239 48.5785 186.159 52.4535C187.426 57.899 200.034 61.978 203.937 58.1641C208.188 54.0035 202.446 40.135 196.989 32.2626ZM186.567 30.427C186.383 32.2014 184.135 33.3027 182.071 34.3021C181.418 34.6284 174.245 38.1159 172.467 35.9337C172.099 35.485 171.854 34.608 175.941 25.9402C179.497 18.3941 180.416 18.1085 180.845 18.1901C181.888 18.4145 181.009 21.3717 183.093 25.1244C184.789 28.1836 186.751 28.7139 186.567 30.427Z" fill="black"/>
<path d="M219.816 4.19921C207.309 -3.20413 189.653 2.07815 187.63 9.62426C185.627 17.0684 199.912 22.7994 209.251 46.3963C212.929 55.6759 212.765 59.9385 212.418 62.447C210.497 76.0096 196.662 81.4143 198.154 84.4735C199.809 87.8387 219.141 85.6972 223.76 74.2965C225.17 70.8089 224.72 67.6477 224.107 63.5891C221.491 46.3147 210.558 37.6468 212.929 34.1185C215.402 30.4271 227.765 39.3396 232.199 34.9547C236.838 30.3659 232.445 11.6637 219.816 4.19921ZM220.51 21.6369C219.632 22.8198 217.404 20.5151 212.908 21.6369C210.865 22.1467 208.617 23.2888 206.247 22.2079C206.185 22.1875 206.022 22.1263 205.817 21.9836C205.082 21.4737 204.734 20.2908 201.955 15.9263C200.218 13.173 199.564 12.4184 199.768 11.3374C200.116 9.48149 202.609 8.74728 203.283 8.54333C207.493 7.27884 211.539 9.95057 212.908 10.8887C217.833 14.2539 221.777 19.9237 220.51 21.6369Z" fill="black"/>
</svg>
