<svg viewBox="0 0 234 96" fill="none" xmlns="http://www.w3.org/2000/svg">
<path d="M118.722 25.1243C118.007 25.8585 123.156 30.2434 126.017 37.1981C128.51 43.235 127.652 47.1304 127.836 53.9423C128.265 69.0754 133.946 82.8827 135.867 82.6176C137.584 82.3933 138.585 70.8089 137.155 60.1016C136.051 51.9232 133.905 47.11 135.336 46.2535C136.848 45.3153 142.1 49.1291 144.47 54.7174C148.823 64.9964 140.261 73.6642 145.022 80.884C147.413 84.4939 152.297 86.3295 153.973 84.9222C155.873 83.3314 153.115 78.2735 150.867 68.7694C146.105 48.6193 150.805 41.9501 144.103 33.7514C138.932 27.4086 131.065 25.5118 130.574 26.246C130.247 26.7763 133.374 28.8362 135.683 33.7514C137.134 36.8106 138.013 40.4817 137.318 40.8692C136.317 41.4403 133.088 34.9751 125.077 28.7546C122.768 26.9191 119.294 24.5329 118.722 25.1243Z" fill="black"/>
<path d="M94.8124 19.2098C93.7906 20.0868 100.105 26.4704 104.213 37.3612C106.318 42.9698 109.771 52.1068 107.135 61.6108C103.927 73.1747 94.2811 77.4373 95.8138 80.2722C97.0603 82.5768 104.683 81.9445 109.158 77.58C111.651 75.153 112.346 71.9714 113.736 65.649C115.534 57.4299 114.185 52.3719 113.736 50.2508C113.245 48.2725 112.346 45.4988 113.368 44.6626C114.226 43.9692 116.065 44.8666 117.21 45.8251C119.928 48.1094 120.214 52.168 120.316 54.1055C121.113 68.9326 117.394 75.0103 120.868 80.2722C123.259 83.8821 128.143 85.7176 129.818 84.3104C131.719 82.7196 128.96 77.6616 126.712 68.1576C122.175 48.9456 126.303 43.1942 119.948 33.1395C115.268 25.7361 108.995 22.7381 108.811 22.942C108.606 23.1664 114.471 27.796 115.391 35.0566C115.452 35.5257 115.8 38.2178 115.023 38.5238C113.613 39.0948 110.629 32.3033 103.334 25.2467C100.269 22.3098 95.6298 18.496 94.8124 19.2098Z" fill="black"/>
<path d="M55.2698 0.813609C56.3325 0.670844 63.1579 -0.246927 64.6293 3.46495C67.4902 10.644 44.9091 21.596 40.2498 45.0298C37.0414 61.1826 45.5835 67.2806 40.3316 78.8242C34.4053 91.7953 16.5038 100.463 7.10355 93.1414C1.23858 88.5729 0.54378 79.2729 0.135072 74.011C-1.02975 58.5516 5.53002 40.033 12.4576 39.2172C18.6496 38.483 24.9232 51.9641 23.1249 54.5542C21.6127 56.7161 14.9712 50.5568 11.9263 53.6772C9.14709 56.5529 10.8637 65.7918 15.0325 71.1149C15.9112 72.2162 19.5896 76.9274 23.6154 75.7037C25.9246 75.0103 27.7842 72.5629 29.4599 68.382C35.6314 53.0042 28.1112 41.9705 32.5048 26.5316C36.0197 14.2743 45.1747 2.15967 55.2698 0.813609Z" fill="black"/>
<path d="M75.7052 11.7249C71.189 9.05312 64.1183 14.5394 60.9713 16.9867C51.4075 24.4105 42.6203 39.2988 46.4417 51.0259C46.7891 52.0864 48.6283 57.7562 53.9824 60.5911C54.3093 60.7746 60.3378 63.8135 66.3049 60.6931C71.7612 57.8378 73.723 51.6581 75.7052 45.0094C78.2188 36.6271 82.735 15.8854 75.7052 11.7249ZM65.7327 41.583C62.8513 43.0922 58.7438 42.8475 57.1498 40.033C54.9633 36.1376 58.5395 28.9382 61.5639 25.2875C64.3431 21.9427 69.4928 18.1493 71.659 20.1072C74.7652 22.9013 72.6399 37.9731 65.7327 41.583Z" fill="black"/>
<path d="M100.228 36.8514C96.7333 26.1849 88.8043 16.171 85.4325 17.3743C80.4667 19.1283 86.5973 44.6627 77.2379 59.3062C74.1521 64.1194 70.5759 65.9142 69.5337 66.3833C64.0775 68.9122 58.8256 67.6478 57.8447 67.3826C49.2209 65.1188 45.8286 56.7569 44.9295 57.3279C43.6829 58.0826 47.2795 75.0919 58.7029 77.6209C66.0393 79.2525 72.7216 74.0518 73.6617 73.2972C80.5075 67.8109 79.261 61.3865 85.6777 58.2661C90.2961 56.0227 96.0998 57.0628 96.5698 58.6536C96.9989 60.1424 92.6462 61.5701 88.0891 65.7918C80.6097 72.7057 76.5839 83.3722 78.7705 85.3098C80.5893 86.921 87.4147 83.0051 91.8288 78.9058C102.557 68.9123 104.887 51.0667 100.228 36.8514ZM96.6515 43.6633C96.2428 44.5199 95.0984 44.7443 92.7688 45.1726C90.1531 45.662 88.0278 46.0495 87.1899 44.9686C86.4338 44.0101 87.1082 42.6232 87.6804 40.2166C89.1313 33.9962 87.476 29.9784 88.4365 29.7132C89.213 29.5093 89.9078 32.3238 93.3614 37.4633C95.6911 40.91 97.2441 42.4193 96.6515 43.6633Z" fill="black"/>
<path d="M147.944 29.8151C152.461 34.8527 151.418 40.8896 151.97 50.6383C152.869 66.2405 153.625 75.0103 159.593 80.1906C165.825 85.5952 174.878 84.2288 177.371 83.8617C191.942 81.6794 202.773 67.6477 200.668 63.8746C199.585 61.9575 195.109 62.5694 191.574 63.0588C177.208 65.0372 170.996 74.8879 165.928 72.4405C163.496 71.2576 162.944 67.9944 161.841 61.4273C161.064 56.8588 158.98 45.2541 162.862 34.8527C163.537 33.0783 165.437 27.8776 163.353 23.248C163.169 22.8401 163.046 22.6769 162.862 22.4322C160.022 18.8223 153.033 23.3295 140.996 23.0644C139.75 23.044 138.074 22.942 137.931 23.4723C137.625 24.5532 144.286 25.7362 147.944 29.8151Z" fill="black"/>
<path d="M196.989 32.2626C192.82 26.2461 189.898 25.2875 186.363 17.9861C184.34 13.7848 183.584 10.5624 181.458 10.2361C178.597 9.78736 175.573 14.9269 173.693 18.1901C166.377 30.9165 165.662 43.1534 165.519 46.3351C165.274 52.066 164.701 65.8938 169.401 67.3418C172.508 68.3004 177.862 63.8339 179.619 58.776C181.683 52.8206 178.046 49.068 180.845 45.5193C183.134 42.6232 187.957 41.9094 189.019 43.2758C190.307 44.9278 185.239 48.5785 186.159 52.4535C187.426 57.899 200.034 61.978 203.937 58.1641C208.188 54.0035 202.446 40.135 196.989 32.2626ZM186.567 30.427C186.383 32.2014 184.135 33.3027 182.071 34.3021C181.417 34.6284 174.245 38.1159 172.467 35.9336C172.099 35.485 171.854 34.608 175.941 25.9401C179.497 18.394 180.416 18.1085 180.845 18.1901C181.887 18.4144 181.009 21.3717 183.093 25.1243C184.789 28.1836 186.751 28.7138 186.567 30.427Z" fill="black"/>
<path d="M219.816 4.19916C207.309 -3.2042 189.653 2.07809 187.63 9.62421C185.627 17.0684 199.911 22.7993 209.25 46.3962C212.929 55.6759 212.765 59.9385 212.418 62.4471C210.497 76.0097 196.662 81.4143 198.154 84.4736C199.809 87.8387 219.141 85.6973 223.76 74.2965C225.17 70.809 224.72 67.6478 224.107 63.5892C221.491 46.3147 210.558 37.6468 212.929 34.1185C215.402 30.427 227.765 39.3396 232.199 34.9547C236.838 30.3658 232.445 11.6637 219.816 4.19916ZM220.51 21.6368C219.632 22.8197 217.404 20.5151 212.908 21.6368C210.865 22.1467 208.617 23.2888 206.246 22.2079C206.185 22.1875 206.022 22.1263 205.817 21.9835C205.082 21.4737 204.734 20.2908 201.955 15.9262C200.218 13.1729 199.564 12.4183 199.768 11.3374C200.116 9.48144 202.609 8.74722 203.283 8.54328C207.493 7.27879 211.539 9.95052 212.908 10.8887C217.833 14.2539 221.777 19.9236 220.51 21.6368Z" fill="black"/>
</svg>
